<svg id="Layer_1" enable-background="new 0 0 512.16 512.16" height="512" viewBox="0 0 512.16 512.16" width="512" xmlns="http://www.w3.org/2000/svg"><g><path clip-rule="evenodd" d="m350.292 296.364h-247.821c6.546 164.404 241.335 164.279 247.821 0z" fill="#e2c4ff" fill-rule="evenodd"/><path d="m507.947 219.887c-6.825-29.92-21.939-59.148-44.924-86.873-37.109-41.34-12.934-112.911-75.339-130.62-36.567-9.8-57.219 12.603-77.191 34.266-14.737 15.985-29.975 32.514-53.365 41.184-92.888 32.99-147.872 118.948-111.794 208.519h-135.333c-5.523 0-10 4.477-10 10 0 45.47 14.617 59.312 34.848 78.47 10.931 10.352 23.321 22.084 37.557 42.16 28.354 39.988 63.476 68.904 101.568 83.621 89.422 35.286 183.053-13.891 219.489-101.255 82.838-20.073 134.196-98.211 114.484-179.472zm-136.858 66.476h-114.57c3.568-54.946 26.373-127.905 71.44-175.519 13.307-14.059 23.533-34.677 32.555-52.868 4.865-9.809 9.46-19.074 13.823-25.841 4.377-6.789 6.917-8.539 7.781-8.972.531.807 1.856 3.593 2.253 11.661.395 8.042-.258 18.363-.95 29.291-1.282 20.265-2.734 43.234 1.76 62.062 11.154 46.726 5.862 106.179-14.092 160.186zm-97.646 20.001c-11.831 50.553-82.314 50.517-94.124 0zm-111.114-119.137c15.223-39.763 51.359-71.949 101.75-90.629 27.889-10.339 45.542-29.486 61.117-46.38 12.057-13.078 21.207-22.521 31.186-27.102-13.525 22.172-25.626 55.629-42.95 73.982-48.827 51.586-73.368 130.412-76.95 189.267h-69.272c-15.397-32.054-17.16-67.064-4.881-99.138zm114.204 298.208c-66.954 21.329-137.165-8.582-187.813-80.009-15.372-21.679-29.093-34.673-40.119-45.114-17.19-16.279-26.651-25.236-28.329-53.948h138.717c2.142 14.612 8.949 28.075 19.646 38.587 39.455 38.977 107.171 16.151 115.14-38.587h99.665c-3.202 87.532-48.371 157.238-116.907 179.071zm209.025-190.47c-12.612 37.406-43.203 66.75-83.448 80.91 7.596-24.62 11.511-51.402 11.511-79.512 0-2.652-1.054-5.196-2.929-7.071s-4.419-2.929-7.071-2.929h-11.298c19.21-55.735 23.866-116.426 12.312-164.83-3.799-15.914-2.446-37.293-1.253-56.156.668-10.566 1.307-20.667 1.048-29.39 6.353 8.957 9.555 21.711 13.457 39.066 5.042 22.418 10.755 47.827 29.739 70.726 40.447 48.788 53.918 101.77 37.932 149.186z" fill="#020288"/></g></svg>